<svg xmlns="http://www.w3.org/2000/svg" viewBox="0 0 32 32" fill="none">
  <!-- isometric coin stack -->
  <ellipse cx="16" cy="24.5" rx="9" ry="3.2" fill="#047857"/>
  <path d="M7 18.5 L7 24.5 C7 26.3 11 27.7 16 27.7 C21 27.7 25 26.3 25 24.5 L25 18.5 Z" fill="#059669"/>
  <ellipse cx="16" cy="18.5" rx="9" ry="3.2" fill="#10b981"/>
  <ellipse cx="16" cy="14.8" rx="9" ry="3.2" fill="#047857"/>
  <path d="M7 11.5 L7 14.8 C7 16.6 11 18 16 18 C21 18 25 16.6 25 14.8 L25 11.5 Z" fill="#059669"/>
  <ellipse cx="16" cy="11.5" rx="9" ry="3.2" fill="#34d399"/>
  <path d="M16 9.2 v5.2 M14.2 10.4 h2.4 a1.3 1.3 0 0 1 0 2.6 h-1.8 a1.3 1.3 0 0 0 0 2.6 h2.5" stroke="#065f46" stroke-width="1.15" stroke-linecap="round" stroke-linejoin="round" fill="none"/>
</svg>
