<svg xmlns="http://www.w3.org/2000/svg" viewBox="0 0 32 32" fill="none">
  <!-- isometric crown base -->
  <path d="M6 20 L26 20 L26 24 L6 24 Z" fill="#b45309"/>
  <path d="M6 20 L26 20 L24.5 18.2 L7.5 18.2 Z" fill="#f59e0b"/>
  <!-- crown peaks -->
  <path d="M7.5 18.2 L10.5 18.2 L11.5 11.5 L8.2 15.2 Z" fill="#fbbf24"/>
  <path d="M10.5 18.2 L14.2 18.2 L16 8.5 L11.5 11.5 Z" fill="#fde68a"/>
  <path d="M14.2 18.2 L17.8 18.2 L16 8.5 Z" fill="#fbbf24"/>
  <path d="M17.8 18.2 L21.5 18.2 L20.5 11.5 L16 8.5 Z" fill="#f59e0b"/>
  <path d="M21.5 18.2 L24.5 18.2 L23.8 15.2 L20.5 11.5 Z" fill="#d97706"/>
  <!-- jewels -->
  <circle cx="16" cy="15.5" r="1.6" fill="#ef4444"/>
  <circle cx="11.2" cy="16.2" r="1.15" fill="#38bdf8"/>
  <circle cx="20.8" cy="16.2" r="1.15" fill="#38bdf8"/>
  <circle cx="16" cy="9.2" r="1.35" fill="#fef08a"/>
  <!-- right face depth -->
  <path d="M26 20 L26 24 L24.5 22.5 L24.5 18.8 Z" fill="#92400e"/>
</svg>
